<?xml version="1.0" encoding="utf-8"?>
<!-- Generator: Adobe Adobe Illustrator 24.2.0, SVG Export Plug-In . SVG Version: 6.00 Build 0)  -->
<svg version="1.1" xmlns="http://www.w3.org/2000/svg" xmlns:xlink="http://www.w3.org/1999/xlink" x="0px" y="0px" width="1080px"
	 height="1040px" viewBox="0 0 1080 1040" style="enable-background:new 0 0 1080 1040;" xml:space="preserve">
<style type="text/css">
	.st0{fill:none;stroke:#000000;stroke-miterlimit:10;}
</style>
<g id="Layer_2">
	<path d="M248.24,418.86c6.07-60.06,23.99-119.27,52.83-174.53c7.5-14.37,15.81-28.59,27.34-40.97c4.11-4.41,8.76-8.67,14.78-11.12
		c8.95-3.65,19.83-2.76,28.94,0.61c9.11,3.36,16.76,8.94,23.96,14.69c28.9,23.08,53.93,49.79,72.01,79.57"/>
	<path d="M467.25,287.29c53.59-11.44,109.04-14.28,163.89-3.39c21.79-26.98,45.86-52.68,71.99-76.83
		c10.13-9.37,22.82-19.26,37.88-18.11c11.72,0.89,21.14,8.41,28.09,16.34c7.14,8.16,12.76,17.16,17.98,26.28
		c32.67,57.01,50.85,119.3,59.12,182.12l-598.06,4.84L467.25,287.29z"/>
</g>
<g id="Layer_3">
	<path d="M98.83,448.21c-5.72-0.03-11.36,3.18-14.26,8.11c-2.9,4.93-3.21,11.66-0.41,16.65c1.22,2.16,2.66,4.28,4.48,5.96
		c2.8,2.58,6.44,4.29,9.82,6.04c3,1.56,6.18,2.75,8.91,4.8c1.13,45.94,1.14,91.91-0.03,138.18c-7.07-0.31-14.31,2.78-18.61,8.39
		c-4.31,5.61-5.37,13.67-2.25,20.02c2.88,5.87,8.66,9.68,14.96,13c18.95-0.11,37.89-0.22,57.04-0.86
		c6.01-2.07,11.42-6.29,14.17-12.02c2.75-5.73,2.53-12.99-1.22-18.13c-3.67-5.03-9.87-7.36-15.15-11.58
		c-0.86-27.54-0.86-55.1,0.95-82.69c31.63,41,62.73,82.41,93.64,124.91c13.18,0.07,26.37,0.13,38.66,0.07
		c6.16-3.99,8.94-11.7,8.94-18.89c0,0,0.33,0.63-0.06-0.05c0.36-54.73-0.08-110.97-0.45-166.17c5.96-0.54,11.95-2.68,16.17-6.94
		c4.21-4.25,6.32-10.82,4.37-16.47c-1.26-3.66-4.05-6.63-7.25-8.81c-3.2-2.18-6.82-3.65-10.42-5.15
		c-20.12-0.45-37.51-1.04-58.09,0.08c-2.98,0.08-8.49,2.34-10.84,4.16c-4.78,3.7-8.54,9.36-8.13,15.39
		c0.35,5.14,3.73,9.74,8.07,12.52c4.34,2.77,9.54,3.9,15.01,5.47c-0.07,28.47-0.14,56.95-1.14,85.61
		c-30.27-41.42-64.18-83.77-99.07-122.04c-12.31-0.43-24.64-0.19-36.96,0.04C105.96,447.88,102.21,447.95,98.83,448.21z"/>
	<g>
		<g>
			<path d="M825.67,631.41c-6.88-0.53-13.77-0.88-20.67-1.06c0.2,0.01,0.4,0.02,0.59-0.1c-9.43-15.07-18.85-30.13-28.38-45.96
				c7.65-4.6,15.34-9.22,22.11-15.04c6.77-5.82,12.63-12.95,15.71-21.32c1.4-3.8,2.21-7.8,2.67-11.83
				c1.73-14.99-1.35-30.41-8.21-43.86s-17.4-24.9-29.91-33.33c-3.93-2.65-8.08-4.52-12.5-6.24c-5.15-2-10.66-3.61-14.7-3.38
				c-40.32-2.64-80.77-3.28-121.39-1.27c-7.64,4.61-12.69,13.24-12.97,22.16c-0.05,1.64,0.05,3.31,0.53,4.88
				c0.65,2.15,1.98,4.04,3.48,5.72c4.85,5.42,11.78,8.92,20.38,10.9c2.03,45.44,2.39,90.95,0.61,136.82
				c-7.67,0.85-14.97,5.64-18.09,12.7c-3.12,7.06-1.47,16.15,4.43,21.12c2.63,2.22,5.87,3.55,8.82,4.84
				c18.68,1.45,37.41,0.21,56.04-0.02c2.94-1.19,5.84-2.56,8.32-4.54c6.12-4.89,8.96-13.53,6.96-21.1
				c-2.01-7.57-8.76-13.66-16.39-14.96c0.06-9.13,0.11-18.25,0.53-27.7c9.14,0,19.66-0.25,29.05,0.48
				c16.93,23.26,32.86,47.26,47.91,71.46c15.78-0.06,31.55-0.11,46.78,0.23c4.84-3.85,9.82-7.88,12.62-13.4
				C834.3,649.03,832,637.63,825.67,631.41z M761.84,534.12c-3.07,7.62-9.37,13.65-15.75,18.24c-16.76,0.25-33.52,0.5-50.27,0.76
				c-0.97-17.91-0.38-37.13,0-56.6c14.34-0.08,28.67,0.13,43.15,0.59c4.65,0.52,8.75,3.2,12.51,5.99c2.97,2.2,5.89,4.55,8.07,7.54
				C764.4,517.27,764.91,526.51,761.84,534.12z"/>
		</g>
	</g>
</g>
<g id="Layer_4">
	<g>
		<g>
			<path d="M467.65,443.63c-61.03,0-110.5,49.92-110.5,111.5s49.47,111.5,110.5,111.5s110.5-49.92,110.5-111.5
				S528.68,443.63,467.65,443.63z M409.19,510.12c-1.19,3-3.28,5.53-5.26,8.08c-5.8,7.48-11.07,16.08-11.18,25.54
				c-0.03,2.24,0.24,4.48,0.03,6.7c-0.21,2.23-0.98,4.52-2.69,5.96c-1.71,1.44-4.5,1.73-6.12,0.19c-0.8-0.76-1.22-1.83-1.56-2.89
				c-3.41-10.6-0.93-22.27,3.52-32.47c3.11-7.14,7.28-14,13.31-18.92c1.26-1.03,4.57-3.29,7.61-1.85c1.65,0.78,2.74,2.5,3.06,4.29
				C410.24,506.56,409.87,508.42,409.19,510.12z M469.13,614.46c-29.53,0-53.47-25.88-53.47-57.8s23.94-57.8,53.47-57.8
				s53.47,25.88,53.47,57.8S498.66,614.46,469.13,614.46z"/>
		</g>
	</g>
	<path d="M982.93,446.58c-29.38-1.54-58.85-1.54-89.87,0.33c-4.94,4.05-9.93,8.67-11.69,14.81c-1.98,6.87,0.66,14.55,5.65,19.66
		c4.99,5.11,14.52,7.88,22.76,9.56c1.26,3.65,1.69,5.37,2.81,9.06c1.82,41.83,2.07,83.72-0.85,126c-6.52-1.47-13.61-0.2-19.22,3.44
		c-5.61,3.64-9.65,9.6-10.97,16.15c-0.76,3.79-0.6,7.87,1.11,11.34c1.45,2.93,3.9,5.23,6.36,7.4c3.67,3.25,7.84,6.52,13.08,7.44
		c25.14-1.01,50.3-1.51,75.2-1.79c3.4-1.83,6.79-3.89,9.22-6.89c2.6-3.22,3.92-7.3,4.66-11.37c0.56-3.05,0.83-6.21,0.25-9.26
		c-1.03-5.42-4.77-10.14-9.57-12.87c-4.8-2.72-13.04-4.29-18.82-4.09c0.65-44.49,0.73-89,0.58-134.42
		c4.87-0.53,9.78-1.06,14.48-2.42c4.71-1.36,9.26-3.61,12.66-7.14c2.6-2.7,4.45-6.07,5.68-9.61c1.23-3.55,1.86-7.48,0.65-11.03
		c-1.17-3.43-2.87-7.07-5.5-9.56C989.38,449.17,986.18,446.75,982.93,446.58z"/>
</g>
<g id="Layer_5">
	<circle cx="129.53" cy="757.12" r="16.12"/>
	<circle cx="184.62" cy="757.12" r="16.12"/>
	<circle cx="244.62" cy="757.12" r="16.12"/>
	<circle cx="901.62" cy="757.12" r="16.12"/>
	<circle cx="963.62" cy="757.12" r="16.12"/>
	<path d="M696.49,719.2c0,0-0.41,80.77-0.33,80.53c3.09,7.28,10.76,12.36,18.67,12.36c0,0,51.73,0.22,52.31-0.15
		c3.19-0.63,6.1-2.46,8.13-4.99c2.04-2.53,3.2-5.72,3.41-8.96c0.17-2.75-0.37-5.62-1.99-7.84c-1.85-2.54-4.84-3.95-7.71-5.26
		l-44.28,0.6l0.37-12.93c0,0,33.53,0.03,33.62,0.01c4.76-2.01,7.65-7.41,7.28-12.57c-0.13-1.76-0.59-3.5-1.43-5.05
		c-1.82-3.33-5.46-5.58-9.25-5.72l-30.28,0.04l-0.05-13.43c0,0,46.68,0.16,47.14-0.13c2.76-1.57,4.84-4.21,5.97-7.17
		c1.13-2.96,1.36-6.23,0.91-9.37c-0.24-1.7-0.69-3.39-1.53-4.89c-2.01-3.58-6.22-7.04-10.32-6.89c0,0-61.57,0.66-61.47,0.46
		c-1.07,0.18-2.07,0.68-3,1.26C699.39,711.17,696.79,714.44,696.49,719.2z"/>
	<g>
		<g>
			<path d="M541.49,784.95c-2.75-6.1-5.51-12.2-8.26-18.31c-8.44-18.7-16.95-37.52-28.63-54.39c-1.45-2.09-3-4.2-5.15-5.57
				c-3.8-2.42-8.93-2.01-12.9,0.13c-3.97,2.14-6.94,5.76-9.33,9.58c-5.4,7.69-9.2,16.45-12.97,25.15
				c-6.52,15.04-13.03,30.08-19.55,45.11c-2.33,5.39-4.72,11.21-3.52,16.96c1.4,6.7,8.18,11.83,15.01,11.35
				c2.65-0.18,5.2-1.1,7.57-2.32c1.35-0.69,2.68-1.51,3.64-2.68c0.95-1.14,1.5-2.55,2.03-3.94c2.02-5.22,4.03-10.45,6.13-15.42
				c11.29,0.09,23.69,0.14,33.29,0.14c2.49,6.42,5.54,13.82,10.33,18.76c1.37,1.41,2.88,2.78,4.74,3.43c3.03,1.06,6.38,0,9.3-1.34
				c4.97-2.28,9.87-5.86,11.32-11.14C545.97,795.27,543.7,789.86,541.49,784.95z M501.06,769.06c-0.98,0.55-2.15,0.59-3.27,0.61
				c-5.14,0.06-10.28-0.13-15.4-0.59c-0.79-0.07-1.59-0.15-2.3-0.5c-0.71-0.35-1.31-1.02-1.35-1.8c0.23-1.7,0.98-2.93,1.7-4.09
				c2.44-3.89,4.88-7.78,7.44-11.78c0.55-0.96,1.24-1.96,2.3-2.24c0.92-0.24,1.92,0.14,2.64,0.76s1.21,1.46,1.69,2.29
				c2.88,5.01,5.49,10.18,7.81,15.47C502.52,767.59,502.04,768.5,501.06,769.06z"/>
		</g>
	</g>
	<circle cx="848.32" cy="757.12" r="16.12"/>
	<path d="M578.84,718.01c0,0-0.91,82.2-1.26,83.19c1.54,2.68,3.12,5.39,5.37,7.51c3.93,3.71,9.8,5.24,15.04,3.93
		c5.24-1.31,9.69-5.43,11.41-10.56l-0.51-25.36c0,0,32.18-0.55,32.45-0.73c4.23-2.03,6.41-6.89,6.92-11.55
		c0.25-2.28,0.18-4.63-0.53-6.81c-0.72-2.18-2.13-4.18-4.13-5.32c-1.41-0.8-3.02-1.14-4.62-1.4l-31.4,0.05l0.14-15.83
		c0,0,46.44,0.19,46.51,0.38c6.55-3.9,9.87-12.55,7.53-19.81c-0.61-1.89-1.56-3.68-2.91-5.12c-2.23-2.38-4.74-2.87-8.65-2.87
		c0,0-62.14-0.42-62.33-0.29c-1.2,0.37-2.29,1.02-3.29,1.77C582.08,711.08,580.08,713.62,578.84,718.01z"/>
	<path d="M383.63,780.27c2.47-1.84,5.1-3.44,7.75-5.02c1.26-0.75,2.6-1.5,4.06-1.52c2.08-0.04,3.87,1.37,5.43,2.75
		c3.18,2.82,6.19,5.84,9.01,9.02c0.71,0.81,1.44,1.66,1.71,2.7c0.51,1.95-0.73,3.95-2.25,5.28c-1.52,1.33-3.36,2.29-4.71,3.78
		c-6.39,4.76-13,9.25-20.34,12.16c-7.34,2.91-15.48,4.17-23.21,2.56c-47.3-13.31-42.88-61.98-41.6-66.39
		c1.27-4.4,10.11-33.34,44.85-39.14s46.39,18,46.33,18.06c0.66,0.99,0.76,2.29,0.49,3.45s-0.87,2.22-1.52,3.22
		c-1.99,3.07-4.48,5.8-7.09,8.36c-1.42,1.4-2.89,2.75-4.49,3.94c-1.21,0.9-2.57,1.72-4.07,1.78c-2.17,0.09-4.06-1.38-5.72-2.78
		c-1.13-0.95-2.27-1.9-3.4-2.86c-0.82-0.69-1.63-1.37-2.45-2.06c0,0-17.8-13.06-30.43,8.02
		C339.34,766.7,361.31,796.86,383.63,780.27z"/>
</g>
</svg>
