<?xml version="1.0" encoding="UTF-8"?>
<svg id="Layer_1" xmlns="http://www.w3.org/2000/svg" version="1.1" xmlns:xlink="http://www.w3.org/1999/xlink" viewBox="0 0 576 159.8">
  <!-- Generator: Adobe Illustrator 29.3.1, SVG Export Plug-In . SVG Version: 2.1.0 Build 151)  -->
  <defs>
    <style>
      .st0 {
        fill: #3d4d66;
      }

      .st1 {
        fill: #b5b5b5;
      }
    </style>
  </defs>
  <path class="st0" d="M89.5,49.8c-2.3-1-4.5-2.1-7.3-3.3,5-1.9,9.6-3.9,14.4-5.4,11.4-3.6,19.4-10.6,23.2-22.2,1.7-5.2,3.9-10.2,6-15.8.5,1,.9,1.6,1.2,2.3,1.8,4.8,3.7,9.7,5.5,14.5,3.8,10.5,11.1,17.3,21.6,20.8,5.2,1.7,10.2,3.8,15.7,5.9-5.6,2.1-10.7,4.2-15.8,6-10.5,3.6-17.9,10.2-21.5,20.8-1.9,5.4-4.1,10.7-6.9,16.1-1.1-2.8-2.1-5.5-3.2-8.3-2.2-5.1-4.4-10.2-6.9-15.6-.4-7-4-11.2-9.7-13.8-5.2-2.4-10.6-2.9-16.2-1.9Z"/>
  <path class="st1" d="M376.4,59.9c14.9,18,29.6,35.9,44.4,53.8.3,0,.5-.1.8-.2-.8-21-1.5-42-2.3-63.1h7.2c-.9,25.4-1.7,50.6-2.6,75.8l-.9.5c-9.2-10.6-18-21.5-26.9-32.3-9-10.8-18-21.7-27.7-32.4.8,20.9,1.5,41.8,2.3,62.9h-7.2c.9-25.3,1.8-50.6,2.6-76,.3-.2.6-.3.9-.5,3.1,3.8,6.2,7.5,9.5,11.4Z"/>
  <path class="st1" d="M89.2,49.9c5.8-1,11.3-.5,16.5,1.9,5.7,2.6,9.4,6.8,9.5,13.7-.5,9.8-6.8,14.8-14.6,18.9,3.3,2.4,6.4,4.5,9.3,6.9,3.7,3,6.6,6.6,7.7,11.5,1.7,7.5-.5,13.6-6.6,18.2-8.7,6.6-25.4,6.6-34.1,0-6.5-4.8-8.6-12.7-5.2-20.1,2.9-6.4,8-10.2,14.2-12.9.7-.3,1.4-.6,2.1-.9.2,0,.3-.3.4-.4-2.9-2.1-5.8-4.2-8.6-6.5-5.6-4.7-7.9-10.7-6.1-17.8,1.7-7.1,7-10.5,13.7-12.2.5-.1,1-.2,1.7-.4M78.5,114.5c4.5,10.8,20.7,10.8,27.8,5.4,5.1-3.8,7-10.5,4.2-16.2-1.1-2.3-2.8-4.6-4.8-6.2-4-3.1-8.3-5.8-12.6-8.5-.7-.4-1.9-.4-2.7-.1-10.4,4.2-15.3,14.6-11.8,25.6M83.3,55.8c-5,5.4-5.3,12.6.2,17.4,4,3.6,8.9,6.4,13.4,9.3.6.4,1.9,0,2.6-.3,7.6-4.2,11.2-14.7,7.6-22.7-.8-1.7-2.1-3.4-3.6-4.5-5.9-4.3-14.2-4-20.3.7Z"/>
  <path class="st1" d="M48.2,93.4c4.4,4.4,6.5,9.5,5.9,15.5-.8,7.4-5.2,12.1-11.8,14.7-8,3.2-16.3,3.1-24.4,0-12.2-4.6-15.6-18.3-6.7-27.9,3-3.2,7.2-5.3,10.8-7.8.8-.5,1.8-.8,2.7-1.2-3.4-2.6-6.8-4.9-9.7-7.7-7.4-6.9-7.7-17.4-.9-24,7.5-7.3,24.3-7.7,32.1-.6,6.2,5.6,7.2,14.4,1.6,21.1-2.9,3.5-6.9,6.2-10.3,9.1,3.3,2.6,7,5.5,10.8,8.6M43.7,118.6c5.2-5.7,5.6-13.5.1-18.7-4.5-4.3-10-7.5-15.1-11-.6-.4-2.1-.4-2.7,0-3.1,2.2-6.5,4.2-8.9,7-7.1,8.4-4.7,22,4.7,25.7,7.5,3.1,15,2.5,21.9-3.1M16.7,69.7c3.8,6.5,10.5,9.5,16.6,13.1.6.3,1.9-.2,2.6-.7,6.8-4.2,10.2-13,8-20.7-1.3-4.5-4.2-7.5-8.8-8.6-2.2-.5-4.5-.6-6.7-.6-9.5.3-14.8,7.9-11.8,17.5Z"/>
  <path class="st0" d="M460.1,104c7.4-3.7,12.3-9.5,15.3-17.1,2.2-5.8,4.5-11.7,7-18.3,2,5.1,3.7,9.6,5.4,14.1,2,5.5,4.1,11.1,8.6,15.1,2.9,2.6,6.3,4.5,9.7,7.1-.7,2.6-1.3,5.1-2.6,7.1-5.1,8-15.5,11.5-26.5,9.2-9-1.9-15.3-8.3-16.9-17.2Z"/>
  <path class="st1" d="M459.9,103.8c1.7,9.1,8,15.6,17,17.4,11,2.3,21.4-1.2,26.5-9.2,1.3-2,1.9-4.4,2.8-6.9,0-6.2.2-12.1,0-18-.3-11.9-.8-23.9-1.2-35.8,0-.3.1-.5.2-1h6.7c0,.6.1,1.4.1,2.1-.5,14.8-.9,29.5-1.5,44.3-.1,3-.5,6-.8,9.5-1.9,8.6-6.3,14.7-14.3,17.5-8.9,3.2-17.9,3.1-26.7-.2-7.9-3-12.5-9-15.6-16.6-.5-8.4-1.3-16.7-1.5-25.1-.3-10.4,0-20.8,0-31.4h7.2c0,9.1,0,18.1,0,27.1,0,6.8,0,13.5.2,20.3,0,1.9.5,3.9.9,6Z"/>
  <path class="st1" d="M202.3,74c6.5,17.1,13,34,19.4,50.8-.3.1-.4.3-.6.3q-6.9.4-9.4-6.2c-3.3-8.9-6.7-17.7-10-26.6-.6-1.5-1.3-2.1-2.9-2.1-6.6.1-13.1.1-19.7,0-1.9,0-2.7.5-3.3,2.4-3,10.1-6.3,20.2-9.4,30.2-.2.7-.5,1.4-.7,2.2h-7.7c2.5-6.6,4.9-13,7.4-19.3,6.7-17.5,13.5-35,20-52.6,1-2.8,2.7-2.8,5.1-3,2.6-.2,3.3,1.1,4,3.1,2.5,6.9,5.2,13.7,7.9,20.8M183.7,67.4c-2.1,6.6-4.1,13.3-6.2,20h22.3c-4-10.6-7.9-20.9-11.8-31.2-.3,0-.5,0-.8.1-1.1,3.5-2.2,7.1-3.5,11Z"/>
  <path class="st1" d="M263.1,109.9c6.9-18.7,13.7-37,20.3-55.6,1.2-3.4,2.7-4.8,6.2-4.2.9.2,1.9,0,3.3,0-2.7,6.2-5.2,11.9-7.8,17.7-8.4,18.8-16.8,37.7-25.2,56.5-.4.8-1.3,1.4-2,2.1-.7-.7-1.7-1.2-2.1-2-10.9-24.4-21.7-48.7-32.5-73.1-.1-.2-.1-.5-.3-1.1,2.4,0,4.6-.2,6.8,0,.7,0,1.4,1.1,1.8,1.9,9.1,20.7,18.1,41.4,27.2,62,.3.8.8,1.5,1.5,3,1-2.8,1.8-5,2.7-7.3Z"/>
  <path class="st1" d="M336.5,50.2c1.9,0,3.6,0,5.5,0v5.3c-8.2-1.2-16.4-2.3-24.8-3.5v32.5h23.8v3.1h-23.8v35.9c8.4-1.1,16.6-2.1,25.1-3.2v4.8h-32.6V50.2c8.9,0,17.7,0,26.7,0Z"/>
  <path class="st1" d="M558.3,125.2h-20.4V50.5h32.2v5c-8.3-1.2-16.6-2.3-25-3.5v32.4h23.9v3.2h-23.9v35.9c8.5-1.1,16.8-2.1,25.3-3.2v5h-12.2Z"/>
  <path class="st0" d="M452.9,106.9c3.3,7.5,7.9,13.6,15.8,16.6,8.9,3.3,17.9,3.4,26.7.2,7.9-2.8,12.4-8.9,14.3-17.2,5.4,1.8,10.7,3.8,16.5,6-5.7,2.2-10.8,4.3-16,6.1-10.5,3.6-17.8,10.2-21.4,20.9-1.9,5.5-4.2,10.9-6.5,17-2.4-6.4-4.7-12.2-6.9-18.1-3.3-8.8-9.3-15.1-18-18.5-6.1-2.4-12.2-4.7-18.9-7.3,5.1-2,9.7-3.7,14.5-5.5Z"/>
</svg>